<svg height='100px' width='100px'  fill="#000000" xmlns="http://www.w3.org/2000/svg" data-name="Слой 3" viewBox="0 0 116.73999 103.42194" x="0px" y="0px"><title>80</title><path d="M208.495,150,156.784,98.289l-19.68871,19.68871L117.40657,98.289,97.71786,117.97774,91.755,123.95467l5.96286,5.96285L117.80038,150,97.71786,170.08248,91.755,176.05941l5.96286,5.96285L117.40657,201.711l19.6887-19.68871L156.784,201.711ZM103.69479,176.05941,129.74016,150l-26.04537-26.04537,13.71178-13.72586,13.72585,13.72586,5.96285,5.96285L157.1778,150l-20.08253,20.08244-.018.018-19.67068,19.67068ZM169.11758,150,143.0722,123.95467,156.784,110.22881,196.55521,150,156.784,189.77119,143.0722,176.05941Z" transform="translate(-91.755 -98.28903)"></path></svg>